<?xml version="1.0" encoding="utf-8"?>
<!-- Generator: Adobe Illustrator 21.1.0, SVG Export Plug-In . SVG Version: 6.00 Build 0)  -->
<svg version="1.1" id="Layer_1" xmlns="http://www.w3.org/2000/svg" xmlns:xlink="http://www.w3.org/1999/xlink" x="0px" y="0px"
	 viewBox="4.19 4.47 264.14 99.32" style="enable-background:new 0 0 266.2 107.1;" xml:space="preserve">
<style type="text/css">
	.st0{fill:#3AAA35;}
</style>
<g>
	<path d="M15.9,99.8V87.4h2.7l3.6,9.6l3.6-9.6h2.6v12.4h-1.7L26.8,89l-4,10.8h-1.3l-4-10.8l0.1,10.8H15.9z"/>
	<path d="M60.9,87.4v7.9c0,1,0.1,1.7,0.4,2.1c0.3,0.6,1.3,0.9,2.2,0.9c0.9,0,1.9-0.3,2.2-0.9c0.2-0.4,0.3-1.1,0.3-2.1v-7.9h1.8v7.9
		c0,0.8-0.1,1.4-0.2,1.9c-0.2,1.1-0.8,1.9-1.8,2.4c-0.5,0.3-1.6,0.4-2.3,0.4c-1.5,0-3-0.6-3.8-1.7c-0.3-0.5-0.5-1.1-0.6-1.9
		c0-0.3,0-0.7,0-1.2v-7.9H60.9z M62.6,83.8h1.5l-1.5,2.4h-0.8L62.6,83.8z M65.2,83.8h1.6l-1.5,2.4h-0.9L65.2,83.8z"/>
	<path d="M103.4,99.8l-4.8-12.4h1.9l3.4,9.2l3.4-9.2h1.9l-4.8,12.4H103.4z"/>
	<path d="M139.7,99.8V87.4h6.4V89h-4.6v3.7h4v1.6h-4v3.7h4.6v1.7H139.7z"/>
	<path d="M176.9,99.8V87.4h1.8v12.4H176.9z M183.5,87.4h2.2l-4.8,6.2l4.7,6.2h-2.2l-4.5-6.2L183.5,87.4z"/>
</g>
<rect x="202.1" y="43.7" class="st0" width="56.3" height="56.2"/>
<polygon points="232.6,39.4 198.1,39.4 198.1,73.7 176.9,73.7 176.9,18.1 232.6,18.1 "/>
<path d="M26.9,30.9h14c0,0,0,4.1,0,5.2s-2.6,10.1-12.9,10.1s-14-8.6-14-13.8c0-6.2,3.8-14.3,13.5-14.3s12.2,5.9,13,9
	c0,0.1-5.8,0-5.8,0s-1.7-3.9-6.8-3.9s-7.9,4.1-7.9,8.7s2.7,9.6,8.2,9.6s7.7-4.4,8.1-6.4c0.1,0-9.3,0-9.3,0V30.9z"/>
<path d="M66.4,45.8h5.7l-9.9-27.1h-6.4l-9.9,27.1h5.7l1.9-5.4h11.1L66.4,45.8z M54.9,36.2l3.8-11h0.6l3.8,11H54.9z"/>
<polygon points="64.9,8.2 56,12.9 56,16.7 64.9,12.4 "/>
<path d="M94.8,31.7c0,0,4.5-0.6,4.5-6.4c0-5.8-5.7-6.9-8.3-6.9s-11.9,0-11.9,0v27.4c0,0,10.1,0,13.2,0s7.6-2,7.6-7.1
	S94.8,31.7,94.8,31.7z M84.4,22.9c0,0,3.4,0,5.4,0s4.1,1.6,4.1,3.5c0,1.9-1.7,3.6-3.5,3.6c-1.8,0-6,0-6,0V22.9z M90.7,41.3
	c-1.9,0-6.3,0-6.3,0v-7.5c0,0,3.5,0,5.7,0c2.2,0,4.3,1.7,4.3,3.7C94.4,39.5,92.6,41.3,90.7,41.3z"/>
<path d="M120.4,17.9c-7.6,0-13.8,6.3-13.8,14.1c0,7.8,6.2,14.1,13.8,14.1c7.6,0,13.8-6.3,13.8-14.1C134.2,24.3,128,17.9,120.4,17.9z
	 M120.3,41.1c-4.5,0-8.2-4-8.2-9s3.7-9,8.2-9s8.2,4,8.2,9S124.8,41.1,120.3,41.1z"/>
<path d="M154.5,25.5h5.5c0,0-0.3-7.4-9.6-7.4s-9.4,6.9-9.4,7.8s0.2,5.1,5,6.9c4.8,1.7,4.3,1.6,6.3,2.4c2.1,0.8,2.6,2.6,2.6,3.7
	s-1.2,3.2-3.5,3.2c-2.3,0-4.3-1.6-4.7-4.1h-5.8c0,0,0.7,8.4,10,8.4c9.3,0,9.8-7,9.8-8.1s-0.5-5.3-5.4-7c-4.9-1.8-8.6-2.8-8.6-5.5
	s2.6-3.2,3.6-3.2S153.7,22.8,154.5,25.5z"/>
<path class="st0" d="M84.3,59.1h4c0,0-0.2-5.4-6.9-5.4s-6.8,5-6.8,5.6c0,0.7,0.2,3.7,3.6,5c3.4,1.2,3.1,1.1,4.6,1.7
	c1.5,0.6,1.9,1.9,1.9,2.7S83.9,71,82.2,71c-1.7,0-3.1-1.1-3.4-3h-4.2c0,0,0.5,6,7.2,6s7.1-5.1,7.1-5.8c0-0.8-0.4-3.8-3.9-5.1
	s-6.2-2-6.2-4s1.9-2.3,2.6-2.3S83.7,57.1,84.3,59.1z"/>
<path class="st0" d="M66,73.7h4.1L63,54.2h-4.6l-7.2,19.6h4.1l1.4-4h8L66,73.7z M57.7,66.7l2.7-7.9h0.4l2.7,7.9H57.7z"/>
<polygon class="st0" points="39.9,70.4 39.9,54.2 36.1,54.2 36.1,70.4 36.1,70.6 36.1,73.6 46.4,73.6 46.4,70.4 "/>
<polygon class="st0" points="128.2,54.2 122.8,54.2 119,54.2 113.6,54.2 113.6,57.4 119,57.4 119,73.6 122.8,73.6 122.8,57.4 
	128.2,57.4 "/>
<rect x="126.7" y="62" transform="matrix(2.380502e-11 -1 1 2.380502e-11 72.5149 200.3036)" class="st0" width="19.5" height="3.8"/>
<polygon class="st0" points="160.9,73.6 152.6,63.6 160.7,54.2 156.1,54.2 148.8,62.9 148.8,54.2 145,54.2 145,73.6 148.8,73.6 
	148.8,64.9 156.1,73.6 "/>
<polygon class="st0" points="107.7,54.2 94.5,54.2 94.5,57.4 103.1,57.4 94.5,70.4 94.5,73.6 107.7,73.6 107.7,70.4 98.9,70.4 
	107.7,57.4 "/>
<path class="st0" d="M24.3,54.2c-1.3,0-3.3,0-4.4,0h-1h-2.8v19.5h3.8v-7.3c1.2,0,3.1,0,4.4,0c2,0,6-1.6,6-6.1S26.3,54.2,24.3,54.2z
	 M23.6,63.3c-0.6,0-2.5,0-3.7,0v-6.1c1.2,0,3.1,0,3.7,0c0.9,0,2.7,1.1,2.7,3C26.3,62.2,24.4,63.3,23.6,63.3z"/>
</svg>
