<?xml version="1.0" encoding="UTF-8"?>
<!-- Generator: Adobe Illustrator 25.3.1, SVG Export Plug-In . SVG Version: 6.00 Build 0)  -->
<svg xmlns="http://www.w3.org/2000/svg" xmlns:xlink="http://www.w3.org/1999/xlink" version="1.1" id="Layer_1" x="0px" y="0px" width="220px" height="50px" viewBox="0 0 220 50" style="enable-background:new 0 0 220 50;" xml:space="preserve">
<style type="text/css">
	.st0{fill:#A48053;}
</style>
<g>
	<g>
		<path class="st0" d="M63.4,47C63.3,47,63.3,47,63.4,47l-0.1,0.4c0,0.2,0,1,0,1.5c0,0.2,0.1,0.2,0.2,0.2h0.2c0.1,0,0.1,0,0.1,0v0.2    c0,0,0,0.1-0.1,0.1c-0.1,0-0.4,0-0.9,0c-0.7,0-0.9,0-1,0c-0.1,0-0.1,0-0.1-0.1v-0.2c0,0,0-0.1,0.1-0.1h0.4c0.2,0,0.2-0.2,0.2-0.3    c0-0.3,0-1.1,0-1.6v-0.9c0-0.2,0-1.1,0-1.2c0-0.3,0-0.4-0.3-0.4h-0.3c-0.1,0-0.1,0-0.1-0.1v-0.1c0,0,0-0.1,0.1-0.1    c0.1,0,0.3,0,1,0c0.6,0,0.9,0,1,0c0.1,0,0.1,0,0.1,0.1v0.1c0,0,0,0.1-0.1,0.1h-0.2c-0.2,0-0.3,0.1-0.3,0.4c0,0.1,0,1,0,1.2v0.3    c0,0.1,0,0.1,0.1,0.1h2.3c0.1,0,0.1,0,0.1-0.1v-0.2c0-0.2,0-1.2,0-1.3c0-0.2,0-0.3-0.2-0.3h-0.3c0,0-0.1,0-0.1-0.1v-0.2    c0,0,0-0.1,0.1-0.1c0.1,0,0.4,0,1,0c0.5,0,0.8,0,0.9,0c0.1,0,0.1,0,0.1,0.1v0.1c0,0,0,0.1-0.1,0.1h-0.2c-0.2,0-0.2,0.1-0.2,0.4    c0,0.1,0,1,0,1.3v0.7c0,0.3,0,1.3,0,1.7c0,0.2,0.1,0.3,0.3,0.3h0.3c0,0,0.1,0,0.1,0v0.2c0,0,0,0.1-0.1,0.1c-0.1,0-0.3,0-0.9,0    c-0.6,0-0.9,0-1.1,0c0,0-0.1,0-0.1-0.1v-0.2c0,0,0-0.1,0.1-0.1h0.4c0.2,0,0.2-0.1,0.2-0.3c0-0.3,0-1.4,0-1.6v-0.2    c0-0.1-0.1-0.1-0.2-0.1H63.4z"></path>
		<path class="st0" d="M71,48.1c0,0.3,0,0.7,0,0.8c0,0.2,0.1,0.2,0.3,0.2h0.2c0,0,0,0,0,0v0.2c0,0,0,0.1,0,0.1c-0.1,0-0.4,0-1,0    c-0.7,0-0.9,0-1,0c0,0,0,0,0-0.1v-0.2c0,0,0-0.1,0-0.1h0.3c0.2,0,0.2-0.1,0.2-0.2c0-0.1,0-0.6,0-1.3v-0.3    c-0.1-0.2-1.2-2.2-1.4-2.4c-0.1-0.1-0.2-0.2-0.3-0.2h-0.1c0,0-0.1,0-0.1,0v-0.2c0,0,0,0,0.1,0c0.1,0,0.4,0,0.9,0c0.7,0,1,0,1,0    c0,0,0.1,0,0.1,0v0.2c0,0,0,0.1-0.1,0.1H70c-0.2,0-0.2,0.1-0.2,0.2c0,0.1,0.8,1.7,1,2c0.2-0.4,1.1-1.8,1.1-2c0-0.1,0-0.2-0.2-0.2    h-0.2c0,0-0.1,0-0.1-0.1v-0.2c0,0,0,0,0,0c0.1,0,0.4,0,0.8,0c0.4,0,0.6,0,0.7,0c0,0,0.1,0,0.1,0v0.2c0,0,0,0.1-0.1,0.1h-0.2    c-0.1,0-0.3,0-0.4,0.2c-0.1,0.1-1.3,1.9-1.5,2.3V48.1z"></path>
		<path class="st0" d="M74.6,46.2c0-0.5,0-1.2,0-1.3c0-0.1-0.1-0.2-0.2-0.2H74c0,0,0,0,0,0v-0.2c0,0,0-0.1,0-0.1c0.1,0,0.3,0,1,0    c0.1,0,0.5,0,0.8,0c0.8,0,1.2,0.1,1.6,0.4c0.3,0.2,0.5,0.6,0.5,1c0,0.9-0.7,1.4-1.8,1.4c-0.2,0-0.4,0-0.6,0v0.3c0,0.3,0,1.3,0,1.4    c0,0.2,0.1,0.2,0.2,0.2h0.4c0.1,0,0.1,0,0.1,0v0.2c0,0,0,0.1-0.1,0.1c-0.1,0-0.3,0-1.1,0c-0.6,0-0.9,0-1,0c-0.1,0-0.1,0-0.1,0    v-0.2c0,0,0-0.1,0-0.1h0.2c0.2,0,0.3,0,0.3-0.2c0-0.1,0-1.1,0-1.9V46.2z M75.5,47c0.1,0,0.3,0.1,0.5,0.1c0.3,0,0.7-0.2,0.8-0.5    c0.1-0.2,0.2-0.5,0.2-0.7c0-0.9-0.8-1.2-1.1-1.2c-0.1,0-0.3,0-0.4,0V47z"></path>
		<path class="st0" d="M80.1,47.4c0,0.4,0,1.1,0,1.2c0,0.4,0.1,0.5,0.3,0.5c0.1,0,0.3,0.1,0.5,0.1c0.1,0,0.4,0,0.6,0    c0.1,0,0.4-0.1,0.6-0.2c0.1-0.1,0.5-0.6,0.6-0.7c0,0,0,0,0.1,0l0.1,0.1c0,0,0,0,0,0.1l-0.3,1c0,0.1-0.1,0.1-0.2,0.1    c0,0-0.2,0-0.6,0c-0.4,0-1.1,0-2.3,0c-0.3,0-0.4,0-0.6,0c-0.1,0-0.2,0-0.3,0c0,0-0.1,0-0.1-0.1v-0.2c0,0,0-0.1,0.1-0.1h0.2    c0.3,0,0.3,0,0.3-0.3v-1.6v-0.7c0-0.6,0-1.4,0-1.5c0-0.2-0.1-0.2-0.3-0.2h-0.3c0,0,0,0,0,0v-0.2c0,0,0,0,0,0c0.2,0,0.4,0,1,0h0.2    c0.3,0,1.9,0,2.2,0c0.1,0,0.2,0,0.3,0c0,0,0,0,0.1,0c0,0.1,0.3,1,0.3,1.1c0,0,0,0.1,0,0.1l-0.1,0.1c0,0,0,0-0.1,0    c0,0-0.6-0.7-0.8-0.8c-0.1-0.1-0.3-0.2-0.5-0.2l-1,0l0,2c0.2,0,0.7,0,0.8,0c0.2,0,0.2-0.1,0.3-0.2c0-0.1,0.1-0.3,0.1-0.4    c0,0,0-0.1,0.1-0.1l0.2,0c0,0,0,0,0,0.1c0,0.1,0,0.6,0,0.7c0,0.3,0,0.6,0,0.8c0,0,0,0-0.1,0l-0.2,0c0,0,0,0-0.1,0    c0-0.1-0.1-0.3-0.1-0.3c-0.1-0.1-0.2-0.2-0.3-0.2c-0.2,0-0.6,0-0.8,0L80.1,47.4z"></path>
		<path class="st0" d="M85.2,47.6c0,0.4,0,1.2,0,1.3c0,0.1,0.1,0.3,0.2,0.3h0.3c0,0,0.1,0,0.1,0v0.2c0,0,0,0.1-0.1,0.1    c-0.1,0-0.2,0-0.9,0c-0.7,0-0.8,0-0.9,0c0,0-0.1,0-0.1-0.1v-0.2c0,0,0-0.1,0-0.1h0.2c0.2,0,0.3,0,0.3-0.2c0-0.7,0-1.3,0-2v-1.8    c0-0.2-0.1-0.3-0.2-0.3h-0.3c0,0,0,0,0,0v-0.2c0,0,0,0,0,0c0,0,0.3,0,0.9,0c0.4,0,1,0,1.2,0c0.6,0,1,0.2,1.3,0.4    c0.2,0.2,0.4,0.5,0.4,0.8c0,0.9-0.5,1.2-1.3,1.4v0c0.2,0.1,0.3,0.2,0.4,0.3c0.1,0.1,0.5,0.8,0.6,0.8c0,0.1,0.5,0.7,0.6,0.8    c0.1,0.1,0.3,0.1,0.5,0.1c0,0,0.1,0,0.1,0v0.1c0,0,0,0.1-0.1,0.1c-0.1,0-0.2,0-0.7,0c-0.2,0-0.5,0-0.6,0c-0.1-0.1-0.2-0.2-0.3-0.4    c-0.1-0.2-0.4-0.7-0.5-0.8c-0.1-0.1-0.3-0.4-0.4-0.6c-0.2-0.2-0.3-0.4-0.6-0.4c0,0-0.1,0-0.2,0V47.6z M85.2,47c0.1,0,0.2,0,0.3,0    c1.1,0,1.3-0.9,1.3-1.2c0-0.3-0.1-0.6-0.3-0.8c-0.2-0.2-0.6-0.3-0.9-0.3c-0.1,0-0.2,0-0.2,0c-0.1,0-0.1,0.1-0.1,0.2L85.2,47z"></path>
		<path class="st0" d="M90.9,44.8h-0.2c-0.2,0-0.7,0-1,0.1c-0.2,0.1-0.5,0.6-0.6,0.8c0,0,0,0.1-0.1,0l-0.1,0c0,0,0,0,0-0.1    c0.1-0.3,0.3-1.2,0.3-1.3c0-0.1,0.1-0.1,0.1-0.1c0,0,0.1,0,0.1,0.1c0.1,0.1,0.3,0.2,0.5,0.2c0.4,0,0.7,0,1.3,0h0.4    c0.8,0,1,0,1.4,0c0.1,0,0.4-0.1,0.5-0.2c0.1,0,0.1-0.1,0.1-0.1c0,0,0.1,0,0.1,0.1c0,0.1,0.2,1,0.2,1.3c0,0,0,0.1,0,0.1l-0.1,0    c0,0,0,0-0.1-0.1c-0.1-0.2-0.4-0.6-0.5-0.8c-0.2-0.1-0.8-0.1-1.1-0.1h-0.2v3.7c0,0.5,0.1,0.7,0.2,0.7h0.4c0,0,0,0,0,0.1v0.1    c0,0,0,0.1-0.1,0.1c-0.1,0-0.3,0-1,0c-0.7,0-1,0-1.1,0c0,0-0.1,0-0.1-0.1v-0.2c0,0,0-0.1,0-0.1h0.4c0.1,0,0.2-0.1,0.2-0.2    c0-0.2,0-2.3,0-2.4V44.8z"></path>
		<path class="st0" d="M96.3,47C96.2,47,96.2,47,96.3,47l-0.1,0.4c0,0.2,0,1,0,1.5c0,0.2,0.1,0.2,0.2,0.2h0.2c0.1,0,0.1,0,0.1,0v0.2    c0,0,0,0.1-0.1,0.1c-0.1,0-0.4,0-0.9,0c-0.7,0-0.9,0-1,0c-0.1,0-0.1,0-0.1-0.1v-0.2c0,0,0-0.1,0.1-0.1h0.4c0.2,0,0.2-0.2,0.2-0.3    c0-0.3,0-1.1,0-1.6v-0.9c0-0.2,0-1.1,0-1.2c0-0.3,0-0.4-0.3-0.4h-0.3c-0.1,0-0.1,0-0.1-0.1v-0.1c0,0,0-0.1,0.1-0.1    c0.1,0,0.3,0,1,0c0.6,0,0.9,0,1,0c0.1,0,0.1,0,0.1,0.1v0.1c0,0,0,0.1-0.1,0.1h-0.2c-0.2,0-0.3,0.1-0.3,0.4c0,0.1,0,1,0,1.2v0.3    c0,0.1,0,0.1,0.1,0.1h2.3c0.1,0,0.1,0,0.1-0.1v-0.2c0-0.2,0-1.2,0-1.3c0-0.2,0-0.3-0.2-0.3h-0.3c0,0-0.1,0-0.1-0.1v-0.2    c0,0,0-0.1,0.1-0.1c0.1,0,0.4,0,1,0c0.5,0,0.8,0,0.9,0c0.1,0,0.1,0,0.1,0.1v0.1c0,0,0,0.1-0.1,0.1h-0.2c-0.2,0-0.2,0.1-0.2,0.4    c0,0.1,0,1,0,1.3v0.7c0,0.3,0,1.3,0,1.7c0,0.2,0.1,0.3,0.3,0.3h0.3c0,0,0.1,0,0.1,0v0.2c0,0,0,0.1-0.1,0.1c-0.1,0-0.3,0-0.9,0    c-0.6,0-0.9,0-1.1,0c0,0-0.1,0-0.1-0.1v-0.2c0,0,0-0.1,0.1-0.1h0.4c0.2,0,0.2-0.1,0.2-0.3c0-0.3,0-1.4,0-1.6v-0.2    c0-0.1-0.1-0.1-0.2-0.1H96.3z"></path>
		<path class="st0" d="M102.7,47.4c0,0.4,0,1.1,0,1.2c0,0.4,0.1,0.5,0.3,0.5c0.1,0,0.3,0.1,0.5,0.1c0.1,0,0.4,0,0.6,0    c0.1,0,0.4-0.1,0.6-0.2c0.1-0.1,0.5-0.6,0.6-0.7c0,0,0,0,0.1,0l0.1,0.1c0,0,0,0,0,0.1l-0.3,1c0,0.1-0.1,0.1-0.2,0.1    c0,0-0.2,0-0.6,0c-0.4,0-1.1,0-2.3,0c-0.3,0-0.4,0-0.6,0c-0.1,0-0.2,0-0.3,0c0,0-0.1,0-0.1-0.1v-0.2c0,0,0-0.1,0.1-0.1h0.2    c0.3,0,0.3,0,0.3-0.3v-1.6v-0.7c0-0.6,0-1.4,0-1.5c0-0.2-0.1-0.2-0.3-0.2h-0.3c0,0,0,0,0,0v-0.2c0,0,0,0,0,0c0.2,0,0.4,0,1,0h0.2    c0.3,0,1.9,0,2.2,0c0.1,0,0.2,0,0.3,0c0,0,0,0,0.1,0c0,0.1,0.3,1,0.3,1.1c0,0,0,0.1,0,0.1l-0.1,0.1c0,0,0,0-0.1,0    c0,0-0.6-0.7-0.8-0.8c-0.1-0.1-0.3-0.2-0.5-0.2l-1.1,0l0,2c0.2,0,0.7,0,0.8,0c0.2,0,0.2-0.1,0.3-0.2c0-0.1,0.1-0.3,0.1-0.4    c0,0,0-0.1,0.1-0.1l0.2,0c0,0,0,0,0,0.1c0,0.1,0,0.6,0,0.7c0,0.3,0,0.6,0,0.8c0,0,0,0-0.1,0l-0.2,0c0,0,0,0-0.1,0    c0-0.1-0.1-0.3-0.1-0.3c-0.1-0.1-0.2-0.2-0.3-0.2c-0.2,0-0.6,0-0.8,0L102.7,47.4z"></path>
		<path class="st0" d="M107.8,47.6c0,0.4,0,1.2,0,1.3c0,0.1,0.1,0.3,0.2,0.3h0.3c0,0,0.1,0,0.1,0v0.2c0,0,0,0.1-0.1,0.1    c-0.1,0-0.2,0-0.9,0c-0.7,0-0.8,0-0.9,0c0,0-0.1,0-0.1-0.1v-0.2c0,0,0-0.1,0-0.1h0.2c0.2,0,0.3,0,0.3-0.2c0-0.7,0-1.3,0-2v-1.8    c0-0.2-0.1-0.3-0.2-0.3h-0.3c0,0,0,0,0,0v-0.2c0,0,0,0,0,0c0,0,0.3,0,0.9,0c0.4,0,1,0,1.2,0c0.6,0,1,0.2,1.3,0.4    c0.2,0.2,0.4,0.5,0.4,0.8c0,0.9-0.5,1.2-1.3,1.4v0c0.2,0.1,0.3,0.2,0.4,0.3c0.1,0.1,0.5,0.8,0.6,0.8c0,0.1,0.5,0.7,0.6,0.8    c0.1,0.1,0.3,0.1,0.5,0.1c0,0,0.1,0,0.1,0v0.1c0,0,0,0.1-0.1,0.1c-0.1,0-0.2,0-0.7,0c-0.2,0-0.5,0-0.6,0c-0.1-0.1-0.2-0.2-0.3-0.4    c-0.1-0.2-0.4-0.7-0.5-0.8c-0.1-0.1-0.3-0.4-0.4-0.6c-0.2-0.2-0.3-0.4-0.6-0.4c0,0-0.1,0-0.2,0V47.6z M107.8,47c0.1,0,0.2,0,0.3,0    c1.1,0,1.3-0.9,1.3-1.2c0-0.3-0.1-0.6-0.3-0.8c-0.2-0.2-0.6-0.3-0.9-0.3c-0.1,0-0.2,0-0.2,0c-0.1,0-0.1,0.1-0.1,0.2L107.8,47z"></path>
		<path class="st0" d="M117,46.9c0-0.2,0-1.9,0-1.9h0c-0.1,0.1-0.9,2.1-1,2.3c-0.1,0.2-0.8,1.9-0.8,1.9c0,0.1-0.1,0.2-0.2,0.2    c0,0-0.1,0-0.1-0.1c0,0-0.9-2.2-1-2.3c-0.1-0.3-0.8-1.9-0.8-1.9c0,0.1,0,1.8,0,1.9s0,1.3,0,1.7c0,0.3,0.1,0.6,0.3,0.6h0.3    c0,0,0.1,0,0.1,0v0.2c0,0,0,0.1-0.1,0.1c-0.1,0-0.3,0-0.8,0c-0.6,0-0.8,0-0.9,0c-0.1,0-0.1,0-0.1-0.1v-0.2c0,0,0,0,0,0h0.3    c0.2,0,0.3-0.2,0.3-0.5c0.1-0.5,0.1-2.2,0.1-2.3v-1.2c0-0.2,0-0.4-0.3-0.4h-0.3c0,0-0.1,0-0.1,0v-0.2c0,0,0,0,0.1,0    c0.1,0,0.2,0,1,0c0.3,0,0.5,0,0.6,0c0.1,0,0.1,0,0.2,0.1c0.2,0.6,1.2,2.9,1.4,3.5c0.1-0.1,0.6-1.3,0.7-1.7    c0.1-0.3,0.7-1.7,0.8-1.9c0-0.1,0.1-0.1,0.3-0.1c1,0,1.2,0,1.3,0c0,0,0,0,0,0.1v0.1c0,0,0,0.1-0.1,0.1H118c-0.2,0-0.2,0.1-0.2,0.3    c0,0.2,0,1.5,0,1.7v0.5c0,0.4,0,1.4,0,1.5c0,0.3,0.1,0.4,0.2,0.4h0.4c0,0,0,0,0,0v0.2c0,0,0,0.1-0.1,0.1c-0.1,0-0.4,0-1,0    c-0.7,0-0.9,0-1,0c0,0-0.1,0-0.1-0.1v-0.2c0,0,0-0.1,0.1-0.1h0.4c0.1,0,0.2,0,0.2-0.2c0-0.1,0-1.1,0-1.6V46.9z"></path>
		<path class="st0" d="M121,47.2c0,0.1,0,1.7,0,1.7c0,0.2,0.1,0.2,0.3,0.2h0.3c0,0,0.1,0,0.1,0v0.2c0,0,0,0.1-0.1,0.1    c-0.1,0-0.4,0-1,0c-0.7,0-1,0-1.1,0c0,0-0.1,0-0.1,0v-0.2c0,0,0,0,0.1,0h0.3c0.1,0,0.3,0,0.3-0.2c0-0.1,0-1.6,0-2v-0.5    c0-0.2,0-1.4,0-1.5c0-0.2-0.1-0.2-0.3-0.2h-0.4c0,0-0.1,0-0.1,0v-0.2c0,0,0,0,0,0c0.1,0,0.4,0,1.1,0c0.7,0,0.9,0,1,0    c0,0,0.1,0,0.1,0.1v0.2c0,0,0,0.1-0.1,0.1h-0.3c-0.2,0-0.3,0.1-0.3,0.2c0,0.1,0,1.6,0,1.7V47.2z"></path>
		<path class="st0" d="M127.2,48.3C127.2,48.3,127.2,48.3,127.2,48.3c-0.4,0.7-1.1,1.2-2,1.2c-0.9,0-1.4-0.3-1.8-0.6    c-0.5-0.5-0.7-1.3-0.7-1.9c0-0.7,0.2-1.3,0.7-1.9c0.4-0.4,1-0.7,1.8-0.7c0.6,0,1.1,0.2,1.4,0.3c0.1,0.1,0.1,0.1,0.1,0l0.1-0.2    c0,0,0,0,0.1,0c0.1,0,0.1,0,0.1,0.1c0,0.1,0.1,1.2,0.2,1.4c0,0,0,0.1,0,0.1l-0.1,0c0,0-0.1,0-0.1-0.1c-0.1-0.2-0.2-0.6-0.5-0.9    c-0.3-0.3-0.7-0.5-1.2-0.5c-1.1,0-1.6,1-1.6,2c0,0.4,0.1,1.2,0.6,1.8c0.5,0.5,0.9,0.5,1.2,0.5c0.8,0,1.4-0.4,1.7-0.8    c0,0,0.1-0.1,0.1,0L127.2,48.3z"></path>
		<path class="st0" d="M131.5,47.2c0,0.1,0,1.7,0,1.7c0,0.2,0.1,0.2,0.3,0.2h0.3c0,0,0.1,0,0.1,0v0.2c0,0,0,0.1-0.1,0.1    c-0.1,0-0.4,0-1,0c-0.7,0-1,0-1.1,0c0,0-0.1,0-0.1,0v-0.2c0,0,0,0,0.1,0h0.3c0.1,0,0.3,0,0.3-0.2c0-0.1,0-1.6,0-2v-0.5    c0-0.2,0-1.4,0-1.5c0-0.2-0.1-0.2-0.3-0.2H130c0,0-0.1,0-0.1,0v-0.2c0,0,0,0,0,0c0.1,0,0.4,0,1.1,0c0.7,0,0.9,0,1,0    c0,0,0.1,0,0.1,0.1v0.2c0,0,0,0.1-0.1,0.1h-0.3c-0.2,0-0.3,0.1-0.3,0.2c0,0.1,0,1.6,0,1.7V47.2z"></path>
		<path class="st0" d="M138.2,46.9c0-0.2,0-1.9,0-1.9h0c-0.1,0.1-0.9,2.1-1,2.3c-0.1,0.2-0.8,1.9-0.8,1.9c0,0.1-0.1,0.2-0.2,0.2    c0,0-0.1,0-0.1-0.1c0,0-0.9-2.2-1-2.3c-0.1-0.3-0.8-1.9-0.8-1.9c0,0.1,0,1.8,0,1.9s0,1.3,0,1.7c0,0.3,0.1,0.6,0.3,0.6h0.3    c0,0,0.1,0,0.1,0v0.2c0,0,0,0.1-0.1,0.1c-0.1,0-0.3,0-0.8,0c-0.6,0-0.8,0-0.9,0c-0.1,0-0.1,0-0.1-0.1v-0.2c0,0,0,0,0,0h0.3    c0.2,0,0.3-0.2,0.3-0.5c0.1-0.5,0.1-2.2,0.1-2.3v-1.2c0-0.2,0-0.4-0.3-0.4h-0.3c0,0-0.1,0-0.1,0v-0.2c0,0,0,0,0.1,0    c0.1,0,0.2,0,1,0c0.3,0,0.5,0,0.6,0s0.1,0,0.2,0.1c0.2,0.6,1.2,2.9,1.4,3.5c0.1-0.1,0.6-1.3,0.7-1.7c0.1-0.3,0.7-1.7,0.8-1.9    c0-0.1,0.1-0.1,0.3-0.1c1,0,1.2,0,1.3,0c0,0,0,0,0,0.1v0.1c0,0,0,0.1-0.1,0.1h-0.3c-0.2,0-0.2,0.1-0.2,0.3c0,0.2,0,1.5,0,1.7v0.5    c0,0.4,0,1.4,0,1.5c0,0.3,0.1,0.4,0.2,0.4h0.4c0,0,0,0,0,0v0.2c0,0,0,0.1-0.1,0.1c-0.1,0-0.4,0-1,0c-0.7,0-0.9,0-1,0    c0,0-0.1,0-0.1-0.1v-0.2c0,0,0-0.1,0.1-0.1h0.4c0.1,0,0.2,0,0.2-0.2c0-0.1,0-1.1,0-1.6V46.9z"></path>
		<path class="st0" d="M145.7,46.9c0-0.2,0-1.9,0-1.9h0c-0.1,0.1-0.9,2.1-1,2.3c-0.1,0.2-0.8,1.9-0.8,1.9c0,0.1-0.1,0.2-0.2,0.2    c0,0-0.1,0-0.1-0.1c0,0-0.9-2.2-1-2.3c-0.1-0.3-0.8-1.9-0.8-1.9c0,0.1,0,1.8,0,1.9s0,1.3,0,1.7c0,0.3,0.1,0.6,0.3,0.6h0.3    c0,0,0.1,0,0.1,0v0.2c0,0,0,0.1-0.1,0.1c-0.1,0-0.3,0-0.8,0c-0.6,0-0.8,0-0.9,0c-0.1,0-0.1,0-0.1-0.1v-0.2c0,0,0,0,0,0h0.3    c0.2,0,0.3-0.2,0.3-0.5c0.1-0.5,0.1-2.2,0.1-2.3v-1.2c0-0.2,0-0.4-0.3-0.4h-0.3c0,0-0.1,0-0.1,0v-0.2c0,0,0,0,0.1,0    c0.1,0,0.2,0,1,0c0.3,0,0.5,0,0.6,0c0.1,0,0.1,0,0.2,0.1c0.2,0.6,1.2,2.9,1.4,3.5c0.1-0.1,0.6-1.3,0.7-1.7    c0.1-0.3,0.7-1.7,0.8-1.9c0-0.1,0.1-0.1,0.3-0.1c1,0,1.2,0,1.3,0c0,0,0,0,0,0.1v0.1c0,0,0,0.1-0.1,0.1h-0.3    c-0.2,0-0.2,0.1-0.2,0.3c0,0.2,0,1.5,0,1.7v0.5c0,0.4,0,1.4,0,1.5c0,0.3,0.1,0.4,0.2,0.4h0.4c0,0,0,0,0,0v0.2c0,0,0,0.1-0.1,0.1    c-0.1,0-0.4,0-1,0c-0.7,0-0.9,0-1,0c0,0-0.1,0-0.1-0.1v-0.2c0,0,0-0.1,0.1-0.1h0.4c0.1,0,0.2,0,0.2-0.2c0-0.1,0-1.1,0-1.6V46.9z"></path>
		<path class="st0" d="M148.7,45.1c0-0.2-0.1-0.3-0.2-0.3h-0.3c0,0-0.1,0-0.1-0.1v-0.2c0,0,0-0.1,0.1-0.1c0.1,0,0.4,0,1.1,0    c0.6,0,0.9,0,1,0c0,0,0.1,0,0.1,0v0.2c0,0,0,0.1-0.1,0.1h-0.3c-0.2,0-0.3,0.1-0.3,0.3c0,0.1,0,0.5,0,0.9v0.9c0,0.3,0,0.8,0,1.1    c0,0.3,0.1,0.6,0.2,0.9c0.2,0.3,0.6,0.4,0.9,0.4c0.3,0,0.7-0.1,0.9-0.3c0.3-0.3,0.4-0.7,0.4-1.2v-1.2c0-0.6-0.1-1.2-0.1-1.3    c0-0.2-0.1-0.3-0.3-0.3h-0.2c0,0-0.1,0-0.1,0v-0.2c0,0,0-0.1,0.1-0.1c0.1,0,0.4,0,0.8,0c0.4,0,0.6,0,0.7,0c0.1,0,0.1,0,0.1,0.1    v0.2c0,0,0,0.1,0,0.1h-0.2c-0.2,0-0.3,0.2-0.3,0.3c0,0.1,0,1.1,0,1.1c0,0.1,0,1.3,0,1.6c0,0.6-0.2,1-0.6,1.3    c-0.3,0.3-0.7,0.4-1.3,0.4c-0.3,0-0.7-0.1-1-0.2c-0.4-0.2-0.7-0.5-0.8-0.9c-0.1-0.3-0.1-0.8-0.1-1.7V45.1z"></path>
		<path class="st0" d="M155,46.3c0,1.2,0.1,2.1,0.1,2.4c0,0.3,0.1,0.5,0.3,0.5h0.2c0.1,0,0.1,0,0.1,0.1v0.2c0,0,0,0.1-0.1,0.1    c-0.1,0-0.5,0-0.7,0c-0.2,0-0.6,0-0.7,0c0,0,0,0,0-0.1v-0.2c0,0,0,0,0,0h0.2c0.2,0,0.3-0.2,0.3-0.6c0-0.1,0-1.1,0-2.2v-0.9    c0-0.4-0.2-0.7-0.5-0.7H154c0,0,0,0,0,0v-0.2c0,0,0,0,0,0c0,0,0.1,0,0.2,0c0.1,0,0.3,0,0.6,0c0.1,0,0.2,0,0.3,0c0.1,0,0.2,0,0.2,0    c0.1,0,0.1,0,0.2,0.1c0.1,0.1,1.4,1.8,1.6,2c0.1,0.1,1.2,1.5,1.3,1.6h0v-0.7c0-0.6,0-1,0-1.3c0-0.3,0-0.9-0.1-1.1    c0-0.2-0.2-0.3-0.4-0.3h-0.2c0,0,0,0,0-0.1v-0.2c0,0,0-0.1,0.1-0.1c0.1,0,0.3,0,0.8,0c0.4,0,0.6,0,0.7,0c0.1,0,0.1,0,0.1,0v0.2    c0,0,0,0.1,0,0.1H159c-0.1,0-0.2,0.1-0.2,0.4c0,0.5-0.1,1.6-0.1,2.3v1.8c0,0.1,0,0.2-0.1,0.2c-0.1,0-0.2-0.1-0.2-0.1    c-0.1-0.1-0.4-0.5-0.9-1c-0.5-0.6-1-1.2-1.1-1.4c-0.1-0.1-1.2-1.5-1.3-1.6h0V46.3z"></path>
		<path class="st0" d="M164.3,45c0.5,0.4,0.9,1.1,0.9,2c0,0.5-0.1,1.1-0.5,1.5c-0.4,0.6-1,1-2.1,1c-0.4,0-1-0.1-1.6-0.5    c-0.5-0.3-1-1.1-1-2c0-0.4,0.1-1.1,0.6-1.7c0.6-0.7,1.4-0.9,1.9-0.9C163.2,44.4,163.8,44.5,164.3,45z M161.7,45.1    c-0.4,0.4-0.6,1.1-0.6,1.7c0,1.8,1.1,2.4,1.7,2.4c1.4,0,1.6-1.5,1.6-2.1c0-1.5-1-2.4-1.7-2.4C162.6,44.7,162.2,44.6,161.7,45.1z"></path>
		<path class="st0" d="M168.6,46.9C168.6,47,168.6,47,168.6,46.9l-2,0.1c0,0-0.1,0-0.1,0v-0.4c0,0,0-0.1,0.1-0.1h1.9    c0.1,0,0.1,0,0.1,0.1V46.9z"></path>
		<path class="st0" d="M174.1,45c0.5,0.4,0.9,1.1,0.9,2c0,0.5-0.1,1.1-0.5,1.5c-0.4,0.6-1,1-2.1,1c-0.4,0-1-0.1-1.6-0.5    c-0.5-0.3-1-1.1-1-2c0-0.4,0.1-1.1,0.6-1.7c0.6-0.7,1.4-0.9,1.9-0.9C173,44.4,173.5,44.5,174.1,45z M171.4,45.1    c-0.4,0.4-0.6,1.1-0.6,1.7c0,1.8,1.1,2.4,1.7,2.4c1.4,0,1.6-1.5,1.6-2.1c0-1.5-1-2.4-1.7-2.4C172.3,44.7,171.9,44.6,171.4,45.1z"></path>
		<path class="st0" d="M176.9,46.3c0,1.2,0.1,2.1,0.1,2.4c0,0.3,0.1,0.5,0.3,0.5h0.2c0.1,0,0.1,0,0.1,0.1v0.2c0,0,0,0.1-0.1,0.1    c-0.1,0-0.5,0-0.7,0c-0.2,0-0.6,0-0.7,0c0,0,0,0,0-0.1v-0.2c0,0,0,0,0,0h0.2c0.2,0,0.3-0.2,0.3-0.6c0-0.1,0-1.1,0-2.2v-0.9    c0-0.4-0.2-0.7-0.5-0.7h-0.2c0,0,0,0,0,0v-0.2c0,0,0,0,0,0c0,0,0.1,0,0.2,0c0.1,0,0.3,0,0.6,0c0.1,0,0.2,0,0.3,0    c0.1,0,0.2,0,0.2,0c0.1,0,0.1,0,0.2,0.1c0.1,0.1,1.4,1.8,1.6,2c0.1,0.1,1.2,1.5,1.3,1.6h0v-0.7c0-0.6,0-1,0-1.3    c0-0.3,0-0.9-0.1-1.1c0-0.2-0.2-0.3-0.4-0.3h-0.2c0,0,0,0,0-0.1v-0.2c0,0,0-0.1,0.1-0.1c0.1,0,0.3,0,0.8,0c0.4,0,0.6,0,0.7,0    c0.1,0,0.1,0,0.1,0v0.2c0,0,0,0.1,0,0.1h-0.2c-0.1,0-0.2,0.1-0.2,0.4c0,0.5-0.1,1.6-0.1,2.3v1.8c0,0.1,0,0.2-0.1,0.2    c-0.1,0-0.2-0.1-0.2-0.1c-0.1-0.1-0.4-0.5-0.9-1c-0.5-0.6-1-1.2-1.1-1.4c-0.1-0.1-1.2-1.5-1.3-1.6h0V46.3z"></path>
		<path class="st0" d="M186.6,48.3C186.6,48.3,186.6,48.3,186.6,48.3c-0.4,0.7-1.1,1.2-2,1.2c-0.9,0-1.4-0.3-1.8-0.6    c-0.5-0.5-0.7-1.3-0.7-1.9c0-0.7,0.2-1.3,0.7-1.9c0.4-0.4,1-0.7,1.8-0.7c0.6,0,1.1,0.2,1.4,0.3c0.1,0.1,0.1,0.1,0.1,0l0.1-0.2    c0,0,0,0,0.1,0s0.1,0,0.1,0.1c0,0.1,0.1,1.2,0.2,1.4c0,0,0,0.1,0,0.1l-0.1,0c0,0-0.1,0-0.1-0.1c-0.1-0.2-0.2-0.6-0.5-0.9    c-0.3-0.3-0.7-0.5-1.2-0.5c-1.1,0-1.6,1-1.6,2c0,0.4,0.1,1.2,0.6,1.8c0.5,0.5,0.9,0.5,1.2,0.5c0.8,0,1.4-0.4,1.7-0.8    c0,0,0.1-0.1,0.1,0L186.6,48.3z"></path>
		<path class="st0" d="M191.8,45c0.5,0.4,0.9,1.1,0.9,2c0,0.5-0.1,1.1-0.5,1.5c-0.4,0.6-1,1-2.1,1c-0.4,0-1-0.1-1.6-0.5    c-0.5-0.3-1-1.1-1-2c0-0.4,0.1-1.1,0.6-1.7c0.6-0.7,1.4-0.9,1.9-0.9C190.7,44.4,191.2,44.5,191.8,45z M189.1,45.1    c-0.4,0.4-0.6,1.1-0.6,1.7c0,1.8,1.1,2.4,1.7,2.4c1.4,0,1.6-1.5,1.6-2.1c0-1.5-1-2.4-1.7-2.4C190,44.7,189.6,44.6,189.1,45.1z"></path>
		<path class="st0" d="M197.9,48C197.9,48,197.9,48,197.9,48c0,0.1-0.3,1.3-0.3,1.4c-0.2,0-2.2,0-2.9,0c-0.6,0-0.9,0-1,0    c-0.1,0-0.1,0-0.1-0.1v-0.2c0,0,0-0.1,0-0.1h0.3c0.2,0,0.3-0.1,0.3-0.2c0-0.1,0-1.9,0-2.3v-0.4c0-0.4,0-1.2,0-1.3    c0-0.2,0-0.2-0.2-0.2h-0.3c0,0-0.1,0-0.1-0.1v-0.2c0,0,0-0.1,0.1-0.1c0.1,0,0.3,0,1,0c0.7,0,1,0,1.1,0c0.1,0,0.1,0,0.1,0.1v0.2    c0,0,0,0.1-0.1,0.1h-0.4c-0.2,0-0.2,0.1-0.2,0.3c0,0.1,0,1.1,0,1.6v0.6c0,0.1,0,1.6,0,1.9h0.4c0.4,0,0.9,0,1.2,0    c0.4-0.1,0.8-0.9,0.9-1.1c0,0,0,0,0.1,0L197.9,48z"></path>
		<path class="st0" d="M203.1,45c0.5,0.4,0.9,1.1,0.9,2c0,0.5-0.1,1.1-0.5,1.5c-0.4,0.6-1,1-2.1,1c-0.4,0-1-0.1-1.6-0.5    c-0.5-0.3-1-1.1-1-2c0-0.4,0.1-1.1,0.6-1.7c0.6-0.7,1.4-0.9,1.9-0.9C202,44.4,202.5,44.5,203.1,45z M200.4,45.1    c-0.4,0.4-0.6,1.1-0.6,1.7c0,1.8,1.1,2.4,1.7,2.4c1.4,0,1.6-1.5,1.6-2.1c0-1.5-1-2.4-1.7-2.4C201.3,44.7,200.9,44.6,200.4,45.1z"></path>
		<path class="st0" d="M209.8,48.7c0,0.1,0,0.2,0,0.2c0,0.1,0,0.1-0.1,0.1c-0.6,0.3-1.1,0.5-2,0.5c-0.7,0-1.5-0.2-2-0.8    c-0.4-0.5-0.6-1.1-0.6-1.9c0-0.6,0.3-1.3,0.8-1.7c0.5-0.4,1.1-0.7,2-0.7c0.7,0,1.2,0.2,1.4,0.4c0.1,0.1,0.1,0,0.2,0l0.1-0.1    c0,0,0.1-0.1,0.1-0.1c0.1,0,0.1,0,0.1,0.1l0.1,1.4c0,0.1,0,0.1,0,0.1l-0.2,0c0,0-0.1,0-0.1-0.1c-0.1-0.3-0.3-0.7-0.6-1    c-0.2-0.2-0.6-0.5-1.1-0.5c-0.4,0-0.8,0.1-1.2,0.5c-0.3,0.4-0.6,1-0.6,1.6c0,0.8,0.2,1.5,0.6,1.9c0.3,0.3,0.7,0.5,1.1,0.5    c0.4,0,0.7-0.1,0.9-0.2c0.2-0.1,0.2-0.3,0.2-0.6v-0.5c0-0.2-0.1-0.3-0.2-0.3h-0.3c0,0-0.1,0-0.1-0.1v-0.2c0,0,0-0.1,0-0.1    c0.1,0,0.4,0,1,0c0.6,0,0.8,0,0.9,0c0.1,0,0.1,0,0.1,0v0.2c0,0,0,0.1-0.1,0.1H210c-0.1,0-0.2,0.1-0.2,0.3V48.7z"></path>
		<path class="st0" d="M213.8,48.1c0,0.3,0,0.7,0,0.8c0,0.2,0.1,0.2,0.3,0.2h0.2c0,0,0,0,0,0v0.2c0,0,0,0.1,0,0.1c-0.1,0-0.4,0-1,0    c-0.7,0-0.9,0-1,0c0,0,0,0,0-0.1v-0.2c0,0,0-0.1,0-0.1h0.3c0.2,0,0.2-0.1,0.2-0.2c0-0.1,0-0.6,0-1.3v-0.3    c-0.1-0.2-1.2-2.2-1.4-2.4c-0.1-0.1-0.2-0.2-0.3-0.2H211c0,0-0.1,0-0.1,0v-0.2c0,0,0,0,0.1,0c0.1,0,0.4,0,0.9,0c0.7,0,1,0,1,0    c0,0,0.1,0,0.1,0v0.2c0,0,0,0.1-0.1,0.1h-0.2c-0.2,0-0.2,0.1-0.2,0.2c0,0.1,0.8,1.7,1,2c0.2-0.4,1.1-1.8,1.1-2    c0-0.1,0-0.2-0.2-0.2h-0.2c0,0-0.1,0-0.1-0.1v-0.2c0,0,0,0,0,0c0.1,0,0.4,0,0.8,0c0.4,0,0.6,0,0.7,0c0,0,0.1,0,0.1,0v0.2    c0,0,0,0.1-0.1,0.1h-0.2c-0.1,0-0.3,0-0.4,0.2c-0.1,0.1-1.3,1.9-1.5,2.3V48.1z"></path>
	</g>
	<g>
		<g>
			<path class="st0" d="M78.1,15.4c2.5,2,4.5,5.3,4.5,9.8c0,2.5-0.7,5-2.5,7.3c-2.1,2.7-5,4.7-9.9,4.7c-2,0-4.8-0.6-7.5-2.2     c-2.4-1.4-4.8-5-4.8-9.8c0-2,0.6-5.1,3-8.2c2.9-3.6,6.5-4.2,9.4-4.2C72.7,12.7,75.4,13.2,78.1,15.4z M65.4,16c-2,2-3,5.4-3,8     c0,8.6,5.3,11.7,8.1,11.7c6.7,0,7.8-7.4,7.8-10.2c0-7.2-4.9-11.3-8.1-11.3C69.6,14.2,67.6,13.9,65.4,16z"></path>
			<path class="st0" d="M89.5,22.7c0.3-0.1,0.5-0.3,0.7-0.3c0.2,0,0.3,0.1,0.4,0.4l0.3,1.7H91c0.4-0.5,1-1,1.7-1.3     c0.8-0.5,1.7-0.8,2.7-0.8c1.1,0,2.2,0.2,2.9,0.8c1.5,1.1,1.8,2.1,1.8,3.4v4.8c0,1.1,0,2.5,0,3.2c0,0.7,0.4,0.9,0.8,0.9h0.9     c0.3,0,0.4,0.1,0.4,0.2v0.8c0,0.2-0.1,0.2-0.3,0.2c-0.3,0-1.3-0.1-3.6-0.1c-2,0-3,0.1-3.2,0.1s-0.3-0.1-0.3-0.4v-0.6     c0-0.2,0.1-0.3,0.4-0.3h0.7c0.3,0,0.5-0.2,0.6-0.8c0.1-0.9,0.1-1.8,0.1-3.1v-3.8c0-1.3-0.1-2.2-0.9-2.9c-0.7-0.6-1.3-0.6-2-0.6     c-0.5,0-1.3,0.1-2.1,0.9c-0.5,0.5-0.7,1.5-0.7,2.4v6.8c0,0.7,0.2,1.1,0.6,1.1h0.6c0.3,0,0.3,0.1,0.3,0.3v0.6     c0,0.2-0.1,0.3-0.3,0.3c-0.2,0-1.1-0.1-3.1-0.1c-2.1,0-3.1,0.1-3.3,0.1c-0.1,0-0.2-0.1-0.2-0.3v-0.6c0-0.2,0.1-0.3,0.3-0.3h0.7     c0.4,0,0.9-0.1,0.9-0.7v-7.5c0-1-0.6-1.5-1.4-1.9l-0.3-0.1c-0.2-0.1-0.3-0.2-0.3-0.3v-0.3c0-0.1,0.1-0.3,0.3-0.3L89.5,22.7z"></path>
			<path class="st0" d="M115.9,34.1c0.1,0.1,0.1,0.2,0,0.4c-0.8,1-3.2,2.6-5.6,2.6c-2.3,0-4-0.6-5.3-2.2c-1.3-1.6-1.6-2.9-1.6-4.6     c0-2.1,0.8-4.4,2.5-5.9c1.4-1.3,3-1.9,4.8-1.9c3.8,0,4.7,2,4.7,3c0,0.8-0.5,1.5-1.5,1.5c-1.1,0-1.7-0.8-2-1.7     c-0.5-1.1-1.2-1.4-2.1-1.4c-1.3,0-3,1.5-3,3.8c0,2,0.1,3.3,1.3,5.4c0.9,1.5,2.4,1.8,3.4,1.8c1.7,0,2.7-0.6,3.6-1.3     c0.1-0.1,0.2-0.1,0.3,0L115.9,34.1z"></path>
			<path class="st0" d="M129.7,24.4c1.6,1.6,2.3,3.3,2.3,5.2c0,1.9-0.8,3.6-2.1,5c-1.4,1.5-3.3,2.4-5.6,2.4c-2.1,0-3.9-0.6-5.4-2.4     c-1.5-1.7-1.8-3.1-1.8-5.1c0-1.6,0.8-3.9,2.8-5.5c1.6-1.3,3.3-1.6,4.7-1.6C126.9,22.5,128.6,23.3,129.7,24.4z M128,29.6     c0-3.6-1.9-5.8-3.4-5.8c-0.9,0-1.5,0.3-2.1,0.9c-1,1.2-1.4,2.6-1.4,5c0,1.9,0.1,3.2,1,4.6c0.6,0.9,1.3,1.4,2.6,1.4     C126.8,35.7,128,32.9,128,29.6z"></path>
			<path class="st0" d="M133.7,24.7c-0.3,0-0.5-0.1-0.5-0.5c0-0.3,0.2-0.5,0.6-0.6c0.9-0.3,3.8-2.8,4.5-4.2c0.1-0.3,0.3-0.3,0.5-0.3     c0.3,0,0.4,0.2,0.4,0.5l-0.1,3.3h4.4c0.2,0,0.3,0.1,0.2,0.3l-0.3,1.4c0,0.1-0.1,0.2-0.3,0.2h-4c-0.1,1.4-0.1,3-0.1,4.4v3     c0,2.6,1.1,3.1,1.8,3.1c0.7,0,1.5-0.2,1.9-0.4c0.2-0.1,0.3-0.1,0.4,0.1l0.2,0.4c0.1,0.2,0,0.3-0.1,0.5c-0.5,0.3-1.9,1.3-4.2,1.3     c-2,0-3.5-1.6-3.5-3c0-1.2,0.1-3.8,0.1-5.1v-4.3H133.7z"></path>
			<path class="st0" d="M156.5,29.4c0-1.7,0-3.6-0.9-4.4c-0.5-0.5-1.1-0.8-1.9-0.8c-0.9,0-1.7,0.5-2.5,1.2c-0.3,0.3-0.6,1-0.6,1.6     v7.2c0,1.1,0.1,1.4,0.6,1.4h0.8c0.2,0,0.3,0.1,0.3,0.3v0.6c0,0.2-0.1,0.3-0.3,0.3c-0.3,0-1.7-0.1-3.4-0.1c-2.1,0-3.3,0.1-3.6,0.1     c-0.2,0-0.3-0.1-0.3-0.3v-0.7c0-0.2,0.1-0.2,0.3-0.2h0.8c0.5,0,1-0.1,1.1-0.5c0.1-0.7,0.2-2.6,0.2-4.1l-0.1-11.8     c0-1.9-0.4-2.5-1.5-3l-0.6-0.2c-0.2-0.1-0.3-0.1-0.3-0.3v-0.3c0-0.1,0.1-0.2,0.5-0.4c1-0.3,3.2-1.4,4.3-1.9     c0.4-0.1,0.6-0.3,0.9-0.3c0.3,0,0.3,0.3,0.3,0.8c-0.1,0.6-0.1,7.3-0.1,8.9v2.1h0.2c0.9-1.3,2.7-2,4.3-2c1.5,0,2.3,0.5,3.3,1.3     c1.5,1.3,1.5,3,1.5,4.9v2V35c0,0.5,0.6,0.5,1.1,0.5h0.6c0.3,0,0.3,0.1,0.3,0.2v0.7c0,0.2-0.1,0.3-0.3,0.3c-0.2,0-1.3-0.1-3.3-0.1     c-2,0-3.2,0.1-3.5,0.1c-0.2,0-0.3-0.1-0.3-0.2v-0.8c0-0.1,0.1-0.2,0.2-0.2h0.6c0.4,0,0.9-0.1,0.9-0.7c0.1-0.5,0.1-2.2,0.1-3.2     V29.4z"></path>
			<path class="st0" d="M166.8,29.3c0,3.4,2.4,5.4,4.3,5.4c2.1,0,3.3-0.9,4-1.9c0.1-0.2,0.3-0.2,0.4-0.2l0.5,0.3     c0.2,0.1,0.2,0.2,0,0.7c-0.7,1.3-2.4,3.5-6,3.5c-2.1,0-3.6-0.5-4.8-1.8c-1.5-1.8-1.9-3.4-1.9-5.5c0-1.8,0.2-3.1,1.6-4.9     c1.4-1.8,2.9-2.5,5.8-2.5c3.8,0,5,3.9,5,5.3c0,0.5-0.3,0.5-0.9,0.5h-8V29.3z M170.9,27.1c0.7,0,1.1-0.2,1.1-0.5c0-1-0.3-3-2.1-3     c-1.6,0-2.6,1.2-3.1,3.4H170.9z"></path>
			<path class="st0" d="M179.8,28.2c0-1.5-0.3-2.1-1.3-2.6l-0.6-0.3c-0.2-0.1-0.3-0.1-0.3-0.3v-0.2c0-0.1,0.1-0.2,0.3-0.3l4-1.9     c0.2-0.1,0.3-0.1,0.5-0.1s0.3,0.2,0.3,0.4l0.3,2.4h0.1c1.1-1.9,2.5-3,4-3c1.1,0,1.7,0.7,1.7,1.7c0,0.9-0.9,1.8-1.8,1.8     c-0.5,0-0.9-0.1-1.1-0.3c-0.3-0.2-0.6-0.3-0.9-0.3c-0.4,0-1,0.3-1.4,1c-0.3,0.5-0.4,1.2-0.4,1.6v6.4c0,1.1,0.3,1.4,0.9,1.4h1.5     c0.2,0,0.3,0.1,0.3,0.2v0.8c0,0.2-0.1,0.2-0.2,0.2c-0.2,0-1.7-0.1-4.1-0.1c-2.3,0-3.6,0.1-3.9,0.1c-0.2,0-0.2-0.1-0.2-0.2v-0.7     c0-0.2,0.1-0.3,0.3-0.3h1.2c0.5,0,0.9-0.3,0.9-0.9V28.2z"></path>
			<path class="st0" d="M194.3,22.7c0.3-0.1,0.5-0.2,0.7-0.2c0.2,0,0.4,0.1,0.4,0.5l0.2,1.9h0.1c1-1.3,2.8-2.4,4.8-2.4     c2,0,3.1,1,3.9,2.5h0.2c1.1-1.4,2.8-2.5,4.6-2.5c1.3,0,2.2,0.2,3.1,1.1c0.9,0.9,1.5,1.4,1.5,4.3v3.8c0,0.9-0.1,2.5-0.1,2.9     c0,0.7,0.4,1,0.9,1h0.9c0.2,0,0.3,0.1,0.3,0.2v0.7c0,0.2-0.1,0.3-0.3,0.3s-1.1-0.1-3.2-0.1c-1.9,0-3.1,0.1-3.2,0.1     s-0.3-0.1-0.3-0.3v-0.7c0-0.2,0.1-0.3,0.3-0.3h0.5c0.3,0,0.7-0.2,0.7-0.7c0.1-0.7,0.1-1.9,0.1-2.9v-3.9c0-1.6-0.1-2.5-0.7-3     c-0.5-0.5-1.1-0.7-2-0.7c-0.9,0-1.9,0.7-2.4,1.4c-0.5,0.7-0.5,1.7-0.5,2.6v6.2c0,0.7,0.2,1.1,0.6,1.1h0.9c0.3,0,0.3,0.1,0.3,0.2     v0.7c0,0.2,0,0.3-0.2,0.3c-0.3,0-1.1-0.1-3.2-0.1c-2.1,0-3.1,0.1-3.3,0.1c-0.2,0-0.2-0.1-0.2-0.3v-0.6c0-0.3,0.1-0.3,0.3-0.3h0.7     c0.5,0,0.8-0.3,0.8-1.5v-5.7c0-2.4-0.4-3.1-0.9-3.5c-0.4-0.3-1.1-0.5-1.8-0.5c-0.7,0-1.8,0.4-2.4,1.4c-0.5,0.7-0.5,1.4-0.5,2.4     V34c0,1.2,0.3,1.5,0.7,1.5h0.7c0.3,0,0.3,0.1,0.3,0.2v0.8c0,0.2-0.1,0.3-0.3,0.3c-0.3,0-1.2-0.1-3.3-0.1c-2,0-3,0.1-3.3,0.1     c-0.2,0-0.3-0.1-0.3-0.3v-0.7c0-0.2,0.1-0.2,0.4-0.2h1c0.3,0,0.5-0.3,0.6-0.9v-2v-4.9c0-1.1-0.2-1.7-1-2.1l-0.7-0.4     c-0.2-0.1-0.2-0.2-0.2-0.3v-0.3c0-0.1,0.1-0.2,0.2-0.3L194.3,22.7z"></path>
		</g>
		<g>
			<path class="st0" d="M42.3,6.3C40.7,5,39,3.8,37.1,2.9c-3.7,7.2-5.2,14.6-5.2,22.1c0,7.4,1.5,14.8,5.2,22     c1.9-0.9,3.6-2.1,5.2-3.4c-3.2-6.1-5-12.4-5-18.6C37.2,18.8,39.1,12.5,42.3,6.3z"></path>
			<path class="st0" d="M45.6,25.3c0-3.4,1.2-6.8,3.3-10.2c-0.9-2-2.1-3.9-3.4-5.6c-3.4,5.1-5.1,10.3-5.1,15.7     c0,5.2,1.8,10.3,5.2,15.3c1.3-1.6,2.5-3.5,3.4-5.4C46.7,31.8,45.6,28.6,45.6,25.3z"></path>
			<path class="st0" d="M15.8,2.9c-1.9,0.9-3.6,2.1-5.2,3.4c3.2,6.2,5.1,12.5,5.1,18.7c0,6.2-1.8,12.5-5,18.6     c1.6,1.3,3.3,2.5,5.2,3.4c3.7-7.2,5.2-14.6,5.2-22C21,17.6,19.5,10.2,15.8,2.9z"></path>
			<path class="st0" d="M7.5,9.5C6.1,11.2,5,13,4.1,15.1c2.1,3.4,3.3,6.8,3.3,10.2c0,3.3-1.2,6.5-3.2,9.7c0.9,2,2,3.8,3.4,5.4     c3.4-4.9,5.2-10,5.2-15.3C12.7,19.8,10.9,14.5,7.5,9.5z"></path>
			<path class="st0" d="M29.1,30.2V20c0-4.1,0-7.8,0.1-11.1c0-2.8,0.1-5.5,0.2-8.3c-1-0.1-1.9-0.2-2.9-0.2c-1,0-2,0.1-3,0.2     c0.1,2.8,0.1,5.5,0.2,8.3c0,3.2,0.1,6.9,0.1,11.1v10.2c0,4.1,0,7.8-0.1,11.1c0,2.7-0.1,5.3-0.2,8c1,0.1,2,0.2,3,0.2     c1,0,1.9-0.1,2.9-0.2c-0.1-2.6-0.1-5.3-0.2-8C29.1,38.1,29.1,34.4,29.1,30.2z"></path>
		</g>
	</g>
</g>
</svg>
