<svg id="Exaton_ful_logo_color_" data-name="Exaton ful logo (color)" xmlns="http://www.w3.org/2000/svg" width="118.442" height="24" viewBox="0 0 118.442 24">
  <path id="Path_3" data-name="Path 3" d="M80.382,30.807c1.257-1.216,2.593-2.294,1.384-3.569L75.5,19.868h-5.25s5.622,6.554,6.514,7.789c.677.936.231,1.077-.492,1.8C75.186,30.539,69,36.732,69,36.732h5.352s3.479-3.456,6.03-5.925" transform="translate(-50.536 -14.552)" fill="#14a9e2"/>
  <path id="Path_4" data-name="Path 4" d="M179.759,20.332c-2.27-2.36-9.123-1.321-11.472-1.123l-3.2,3.548c2.117-.2,4.3-.242,6.118-.344,5.572-.319,5.337,1.01,5.346,3.818-3.794-.182-7.795-.723-11.2.661-3.579,1.623-3.14,6.751-.135,8.567,3.315,2.06,12.561.206,16,.424V26.329c0-2.481.171-4.3-1.458-6m-3.15,12.544c-1.325-.131-7.477.828-8.5-.256a1.77,1.77,0,0,1-.8-1.428c-.416-3.2,6.773-2.137,9.238-1.985Z" transform="translate(-119.248 -13.777)" fill="#16222e"/>
  <path id="Path_5" data-name="Path 5" d="M4.44,29.365H19.363c0-9-3.576-9.926-10.26-9.926-6.963,0-9.1,2.845-9.1,10.579a6.537,6.537,0,0,0,2.066,5.161c4.011,3.248,12.33.963,12.33.963l3.451-3.608C13.827,32.883,3.372,35.8,4.44,29.365M9.979,22.6c3.768,0,5.311.9,5.316,3.832H4.472C4.549,23.262,6.212,22.6,9.979,22.6" transform="translate(0 -14.237)" fill="#16222e"/>
  <path id="Path_6" data-name="Path 6" d="M132.65,19.822h-5.266L123.49,24.36c-1.142,1.277-.062,2.792.926,3.751-1.088,1.055-2.711,2.74-1.29,4.219l3.271,3.6c1.072,1.072,2.664.795,6.574.795L125.012,28.2Z" transform="translate(-89.771 -14.518)" fill="#16222e"/>
  <path id="Path_7" data-name="Path 7" d="M372.894,20.027V36.436h4.541l-.005-12.313a79.183,79.183,0,0,1,8.287-.289l.116.021c1.927.385.985,3,1.386,11.773.063,1.379,3.459,2.028,4.241,2.534,0,0,.075-5.542.071-8.462-.013-8.179.671-10.187-4.316-10.363-1.007-.036-14.319.688-14.319.688" transform="translate(-273.112 -14.163)" fill="#16222e"/>
  <path id="Path_8" data-name="Path 8" d="M249.982,18.925c-2.943.268-3.017-.638-3.017-1.366,0-2.74.1-7.5.1-7.5,4.337-.1,3.629.5,5.5-3.513h-5.606V0l-4.293,3.223s.06,13.408.06,13.449c.019,4.719.715,5.832,3.115,5.823,1.973-.007,7.414.073,7.414.073s-3.2-3.65-3.276-3.644" transform="translate(-177.733)" fill="#16222e"/>
  <path id="Path_9" data-name="Path 9" d="M323.6,83.841h0" transform="translate(-236.945 -61.406)" fill="#16222e"/>
  <path id="Path_10" data-name="Path 10" d="M323,83.841h0" transform="translate(-236.513 -61.406)" fill="#16222e"/>
  <path id="Path_11" data-name="Path 11" d="M305.414,27.863c0-.56-.006-1.083-.019-1.575-.114-4.418-.831-6.2-3.714-6.907a50.43,50.43,0,0,0-13.373,0c-2.882.7-3.6,2.49-3.714,6.907-.013.492-.019,1.015-.019,1.575,0,1.4-.01,2.595.094,3.609a1.2,1.2,0,0,0,.247.609c.551.72,2.038,2.546,2.675,3.325a1.745,1.745,0,0,0,.992.613,40.215,40.215,0,0,0,6.253.285h.316a36.634,36.634,0,0,0,6.409-.319l0,0,.029-.009a2.336,2.336,0,0,0,.313-.1,4.269,4.269,0,0,0,3.19-3.495c.007-.026.013-.056.019-.087a23.471,23.471,0,0,0,.3-4.434m-10.378,5.012h-.082c-5.768,0-6.216-.561-6.216-5.281,0-3.775.138-4.8,4.045-5.009l.05,0,.248-.012.26-.01.133,0,.333-.008.155,0,.29,0,.24,0h1l.24,0,.29,0,.155,0,.333.008.133,0,.26.01.248.012.05,0c3.908.211,4.045,1.234,4.045,5.009,0,4.721-.448,5.281-6.216,5.281" transform="translate(-208.426 -13.868)" fill="#16222e"/>
</svg>
