<?xml version="1.0" encoding="utf-8"?>
<!-- Generator: Adobe Illustrator 19.2.1, SVG Export Plug-In . SVG Version: 6.00 Build 0)  -->
<svg version="1.1" id="layer" xmlns="http://www.w3.org/2000/svg" xmlns:xlink="http://www.w3.org/1999/xlink" x="0px" y="0px"
	 viewBox="1.66 277.03 470.40 100.78" style="enable-background:new 0 0 652 652;" xml:space="preserve">
<style type="text/css">
	.st0{fill:#004380;}
	.st1{fill-rule:evenodd;clip-rule:evenodd;fill:#004380;}
	.st2{fill:#FFFFFF;}
</style>
<g>
	<polygon class="st0" points="47,304.6 38,322.4 37.9,322.4 37.9,304.6 25.8,304.6 25.8,351 37.9,351 37.9,338.7 40.4,334.8 
		47.5,351 61.3,351 48.1,324.8 59.8,304.6 	"/>
	<polygon class="st0" points="62.4,351 73.7,351 73.7,322.3 73.8,322.3 81.9,351 95.1,351 95.1,304.6 83.8,304.6 83.8,333.1 
		83.7,333.1 75.9,304.6 62.4,304.6 	"/>
	<g>
		<path class="st1" d="M99.5,327.8c0,17.4,4.2,24.1,16.6,24.1c12.3,0,16.6-6.8,16.6-24.1c0-17.4-4.2-24.1-16.6-24.1
			C103.7,303.6,99.5,310.4,99.5,327.8 M111.9,327.8c0-12.5,0.4-15.9,4.1-15.9c3.7,0,4.1,3.4,4.1,15.9c0,12.5-0.4,15.9-4.1,15.9
			C112.3,343.7,111.9,340.3,111.9,327.8"/>
		<path class="st1" d="M136.9,351H149v-18.6h3.2c2.9,0,4,1.4,4,6.6v3.1c0,2,0,6.4,1.2,8.8h12.9v-0.6c-0.8-0.4-1-0.9-1.4-1.4
			c-0.6-0.9-0.6-4-0.6-6.4v-4c0-6.2-1.8-9.9-7.6-10.4v-0.1c5.5-0.8,7.9-4.9,7.9-11c0-7.1-3.5-12.3-12.7-12.3h-18.9V351z M149,313.3
			h2.3c3.6,0,5.1,1.6,5.1,5.4c0,3.3-1.6,5.5-5.1,5.5H149V313.3z"/>
		<path class="st1" d="M174.2,351h12.1v-18.6h3.2c2.9,0,4,1.4,4,6.6v3.1c0,2,0,6.4,1.2,8.8h12.9v-0.6c-0.8-0.4-1-0.9-1.4-1.4
			c-0.6-0.9-0.6-4-0.6-6.4v-4c0-6.2-1.8-9.9-7.6-10.4v-0.1c5.5-0.8,7.9-4.9,7.9-11c0-7.1-3.5-12.3-12.7-12.3h-18.9V351z
			 M186.3,313.3h2.3c3.6,0,5.1,1.6,5.1,5.4c0,3.3-1.6,5.5-5.1,5.5h-2.4V313.3z"/>
		<rect x="210.5" y="327.2" class="st0" width="20.3" height="9.9"/>
		<path class="st1" d="M235.8,351h18.3c10.1,0,14-5.7,14-13.7c0-4.8-2.5-10-8.6-10.6v-0.1c5.1-1,7.3-5.5,7.3-10.4
			c0-7-4-11.6-12.7-11.6h-18.3V351z M247.9,313.3h2.9c2.5,0,3.8,2.2,3.8,4.8c0,2.5-1.4,4.7-3.8,4.7h-2.9V313.3z M247.9,330.9h3.4
			c2.2,0,4.3,2,4.3,5.6c0,3.8-2.1,5.7-4.3,5.7h-3.4V330.9z"/>
		<path class="st1" d="M272.7,351h12.1v-18.6h3.2c2.9,0,4,1.4,4,6.6v3.1c0,2,0,6.4,1.2,8.8H306v-0.6c-0.8-0.4-1-0.9-1.4-1.4
			c-0.6-0.9-0.6-4-0.6-6.4v-4c0-6.2-1.8-9.9-7.6-10.4v-0.1c5.5-0.8,7.9-4.9,7.9-11c0-7.1-3.5-12.3-12.7-12.3h-18.9V351z
			 M284.8,313.3h2.3c3.6,0,5.1,1.6,5.1,5.4c0,3.3-1.6,5.5-5.1,5.5h-2.4V313.3z"/>
		<polygon class="st0" points="310,351 338.1,351 338.1,341.1 322.1,341.1 322.1,331.8 336.5,331.8 336.5,322.4 322.1,322.4 
			322.1,314.4 337.5,314.4 337.5,304.6 310,304.6 		"/>
		<polygon class="st0" points="342.1,351 353.4,351 353.4,316.4 353.5,316.4 359.9,351 368.6,351 375.1,316.4 375.2,316.4 
			375.2,351 386.5,351 386.5,304.6 369.2,304.6 364.4,332 364.2,332 359.4,304.6 342.1,304.6 		"/>
		<path class="st0" d="M421.1,317.9c0-9.9-4.5-14.3-15-14.3c-10.2,0-15.2,5.1-15.2,14.5c0,16.4,19,11.9,19,21.1
			c0,2.5-1.4,4.5-3.9,4.5c-2.3,0-4-1.4-4-5.4v-1.1h-11.7v1.6c0,9.6,5.6,13.1,15.6,13.1c10.7,0,16.4-4.4,16.4-14.3
			c0-17-19.8-12.5-19.8-21.6c0-2.1,1.2-4.1,3.8-4.1c2.3,0,3.4,2.3,3.4,5v1.1H421.1z"/>
		<polygon class="st0" points="426.7,351 454.7,351 454.7,341.1 438.7,341.1 438.7,331.8 453.2,331.8 453.2,322.4 438.7,322.4 
			438.7,314.4 454.1,314.4 454.1,304.6 426.7,304.6 		"/>
		<rect x="489.8" y="281.1" class="st0" width="136" height="92.8"/>
		<path class="st2" d="M526.9,327.5c0-17.1,13.8-30.9,30.9-30.9c17.1,0,30.9,13.8,30.9,30.9s-13.8,30.9-30.9,30.9
			C540.7,358.4,526.9,344.6,526.9,327.5 M557.7,351c13,0,23.5-10.5,23.5-23.5c0-13-10.5-23.5-23.5-23.5c-13,0-23.5,10.5-23.5,23.5
			C534.2,340.5,544.7,351,557.7,351"/>
		<path class="st2" d="M594.7,310.2c2.5,5.3,3.8,11.1,3.8,17.3c0,6.2-1.4,12.1-3.9,17.3l-8.4,0c3.1-5.1,4.8-11,4.8-17.3
			c0-6.3-1.8-12.3-4.8-17.3L594.7,310.2z"/>
		<path class="st2" d="M529.2,310.2c-3.1,5-4.8,11-4.8,17.3c0,6.3,1.8,12.2,4.8,17.3l-8.4,0c-2.5-5.3-3.8-11.1-3.8-17.3
			c0-6.2,1.4-12.1,3.9-17.3L529.2,310.2z"/>
		<rect x="543.8" y="310.2" class="st2" width="9.9" height="34.6"/>
		<polygon class="st2" points="572.1,344.8 563.7,327.6 572.1,310.2 562.2,310.2 553.8,327.4 562.2,344.8 		"/>
		<path class="st2" d="M514.4,327.5c0-6.2,1.3-12,3.6-17.3v0h-7.4l-8.4,17.3l8.4,17.4h7.4v0C515.7,339.5,514.4,333.7,514.4,327.5"/>
		<path class="st2" d="M601,327.5c0-6.2-1.3-12-3.6-17.3v0h7.4l8.4,17.3l-8.4,17.4h-7.4v0C599.7,339.5,601,333.7,601,327.5"/>
	</g>
</g>
</svg>
